<svg width="120" height="40" viewBox="0 0 120 40" fill="none" xmlns="http://www.w3.org/2000/svg">
  <!-- Background shapes -->
  <rect x="5" y="5" width="30" height="30" rx="6" fill="#463671" />
  <rect x="8" y="8" width="24" height="24" rx="4" fill="#18171D" />
  
  <!-- Stylized A letter -->
  <path d="M15 28L20 12L25 28" stroke="#EBBAF2" stroke-width="3" stroke-linecap="round" stroke-linejoin="round" />
  <path d="M17 22H23" stroke="#EBBAF2" stroke-width="3" stroke-linecap="round" />
  
  <!-- Text part -->
  <path d="M42 15H45L48 26L51 15H55L58 26L61 15H64L59 29H56L53 19L50 29H47L42 15Z" fill="#463671"/>
  <path d="M65 14.5C65 13.6716 65.6716 13 66.5 13H67.5C68.3284 13 69 13.6716 69 14.5V28.5C69 29.3284 68.3284 30 67.5 30H66.5C65.6716 30 65 29.3284 65 28.5V14.5Z" fill="#463671"/>
  <path d="M71 15H74V17C74.5 16.4 75.0833 15.9167 75.75 15.55C76.4167 15.1833 77.1667 15 78 15C79.0833 15 80 15.3333 80.75 16C81.5 16.6667 81.9167 17.8333 82 19.5V29H79V20.5C79 19.6667 78.7917 19 78.375 18.5C77.9583 18 77.3333 17.75 76.5 17.75C75.5 17.75 74.75 18.0833 74.25 18.75C73.75 19.4167 73.5 20.3333 73.5 21.5V29H71V15Z" fill="#463671"/>
  <path d="M84 15H87V17C87.5 16.4 88.0833 15.9167 88.75 15.55C89.4167 15.1833 90.1667 15 91 15C92.0833 15 93 15.3333 93.75 16C94.5 16.6667 94.9167 17.8333 95 19.5V29H92V20.5C92 19.6667 91.7917 19 91.375 18.5C90.9583 18 90.3333 17.75 89.5 17.75C88.5 17.75 87.75 18.0833 87.25 18.75C86.75 19.4167 86.5 20.3333 86.5 21.5V29H84V15Z" fill="#463671"/>
  <path d="M96 22C96 20.1667 96.5417 18.5833 97.625 17.25C98.7083 15.9167 100.083 15.25 101.75 15.25C103.417 15.25 104.792 15.9167 105.875 17.25C106.958 18.5833 107.5 20.1667 107.5 22C107.5 23.8333 106.958 25.4167 105.875 26.75C104.792 28.0833 103.417 28.75 101.75 28.75C100.083 28.75 98.7083 28.0833 97.625 26.75C96.5417 25.4167 96 23.8333 96 22ZM99 22C99 23.1667 99.2917 24.125 99.875 24.875C100.458 25.625 101.25 26 102.25 26C103.25 26 104.042 25.625 104.625 24.875C105.208 24.125 105.5 23.1667 105.5 22C105.5 20.8333 105.208 19.875 104.625 19.125C104.042 18.375 103.25 18 102.25 18C101.25 18 100.458 18.375 99.875 19.125C99.2917 19.875 99 20.8333 99 22Z" fill="#463671"/>
  <path d="M111 28.75C110.167 28.75 109.5 28.5 109 28C108.5 27.5 108.25 26.8333 108.25 26C108.25 25.1667 108.583 24.4583 109.25 23.875C109.917 23.2917 111.083 22.8333 112.75 22.5L115 22V21.5C115 20.8333 114.833 20.3333 114.5 20C114.167 19.6667 113.583 19.5 112.75 19.5C112 19.5 111.417 19.6667 111 20C110.583 20.3333 110.333 20.75 110.25 21.25H108.25C108.333 20.0833 108.792 19.2083 109.625 18.625C110.458 18.0417 111.5 17.75 112.75 17.75C114.083 17.75 115.125 18.0833 115.875 18.75C116.625 19.4167 117 20.4167 117 21.75V29H115V27.5C114.5 28 113.958 28.375 113.375 28.625C112.792 28.875 112 29 111 28.75ZM111.5 27C112.333 27 113 26.7917 113.5 26.375C114 25.9583 114.333 25.4167 114.5 24.75C114.667 24.25 114.75 23.6667 114.75 23L113 23.5C112 23.6667 111.292 23.875 110.875 24.125C110.458 24.375 110.25 24.75 110.25 25.25C110.25 25.75 110.417 26.125 110.75 26.375C111.083 26.625 111.5 27 111.5 27Z" fill="#463671"/>
  <path d="M118 15H121V17C121.5 16.4 122.083 15.9167 122.75 15.55C123.417 15.1833 124.167 15 125 15C126.083 15 127 15.3333 127.75 16C128.5 16.6667 128.917 17.8333 129 19.5V29H126V20.5C126 19.6667 125.792 19 125.375 18.5C124.958 18 124.333 17.75 123.5 17.75C122.5 17.75 121.75 18.0833 121.25 18.75C120.75 19.4167 120.5 20.3333 120.5 21.5V29H118V15Z" fill="#463671"/>
  
  <!-- Accent decorations -->
  <circle cx="26" cy="18" r="2" fill="#E8C28D" />
</svg> 